<?xml version="1.0" encoding="UTF-8" standalone="no"?>
<!-- Created with Inkscape (http://www.inkscape.org/) -->

<svg
   xmlns:dc="http://purl.org/dc/elements/1.1/"
   xmlns:cc="http://creativecommons.org/ns#"
   xmlns:rdf="http://www.w3.org/1999/02/22-rdf-syntax-ns#"
   xmlns:svg="http://www.w3.org/2000/svg"
   xmlns="http://www.w3.org/2000/svg"
   xmlns:sodipodi="http://sodipodi.sourceforge.net/DTD/sodipodi-0.dtd"
   xmlns:inkscape="http://www.inkscape.org/namespaces/inkscape"
   version="1.1"
   id="svg4625"
   width="512"
   height="512"
   viewBox="0 0 512 512"
   sodipodi:docname="lock2.svg"
   inkscape:version="0.92.2 5c3e80d, 2017-08-06"
   inkscape:export-filename="/home/irix/scripts/lock/lock2.png"
   inkscape:export-xdpi="37.582111"
   inkscape:export-ydpi="37.582111">
  <metadata
     id="metadata4631">
    <rdf:RDF>
      <cc:Work
         rdf:about="">
        <dc:format>image/svg+xml</dc:format>
        <dc:type
           rdf:resource="http://purl.org/dc/dcmitype/StillImage" />
        <dc:title></dc:title>
      </cc:Work>
    </rdf:RDF>
  </metadata>
  <defs
     id="defs4629" />
  <sodipodi:namedview
     pagecolor="#ffffff"
     bordercolor="#666666"
     borderopacity="1"
     objecttolerance="10"
     gridtolerance="10"
     guidetolerance="10"
     inkscape:pageopacity="0"
     inkscape:pageshadow="2"
     inkscape:window-width="1916"
     inkscape:window-height="1036"
     id="namedview4627"
     showgrid="false"
     inkscape:zoom="1.625"
     inkscape:cx="256"
     inkscape:cy="231.38462"
     inkscape:window-x="0"
     inkscape:window-y="20"
     inkscape:window-maximized="0"
     inkscape:current-layer="svg4625" />
  <rect
     style="opacity:1;fill:#ffffff;fill-opacity:1;stroke:none;stroke-width:0.75590551;stroke-miterlimit:4;stroke-dasharray:none;stroke-opacity:1"
     id="rect4656"
     width="299.07693"
     height="373.53845"
     x="103.38461"
     y="68.307693" />
  <path
     style="fill:#ff2a2a"
     d="M 238.4099,510.97995 C 152.7946,504.83575 76.718139,457.01752 33.962659,382.47364 -7.3691203,310.41197 -10.55473,220.35879 25.578839,145.47364 59.652269,74.858006 124.18099,23.493383 200.0387,6.6042135 c 36.11989,-8.0418315 75.82907,-8.0434435 112,-0.0045 95.86007,21.3046595 172.01523,97.4616065 193.36942,193.3739665 8.04342,36.12699 8.04342,75.87301 0,112 -23.20281,104.21543 -110.67754,184.01308 -216.36942,197.38009 -15.1843,1.92039 -36.83809,2.61591 -50.6288,1.62622 z m 6.73273,-79.39512 c 10.68407,-4.99041 18.77697,-7.61119 23.50318,-7.61119 1.78426,0 6.96629,1.8 11.5156,4 4.54932,2.2 9.27327,4 10.49767,4 3.74248,0 8.37962,-4.67832 8.37962,-8.45403 0,-4.92939 -2.87109,-7.6758 -13.1576,-12.58623 -8.49985,-4.05754 -10.01879,-4.45905 -16.8424,-4.45205 -5.59532,0.006 -9.65864,0.73533 -16,2.87289 -10.99771,3.70714 -25.62873,11.05718 -26.95923,13.54324 -1.98845,3.71545 -1.25758,8.76048 1.59409,11.0036 3.82727,3.01053 6.95189,2.59623 17.46907,-2.31623 z m -13.16565,-30.86119 c 38.95128,-19.49647 37.41559,-19.16846 51.56172,-11.01315 12.31458,7.09941 36.76813,18.26315 40.00442,18.26315 3.17269,0 8.49558,-4.93471 8.49558,-7.87602 0,-5.24838 -2.11795,-7.08376 -15.76413,-13.66092 -7.3752,-3.55468 -13.56022,-6.46306 -13.7445,-6.46306 -0.18428,0 -5.72181,-2.95252 -12.30562,-6.56115 -14.03219,-7.69113 -19.14854,-8.75207 -28.76073,-5.96385 -3.25876,0.94527 -20.4837,8.9876 -38.27764,17.87184 -33.46842,16.71026 -35.14738,17.84146 -35.14738,23.68042 0,3.11511 5.27611,7.97274 8.65958,7.97274 1.63724,0 16.38593,-6.79351 35.2787,-16.25 z M 186.1902,384.41301 c 19.28167,-7.74873 55.40846,-26.70259 71.3485,-37.43287 8.78052,-5.91074 12.83214,-8.0065 15.47856,-8.0065 1.14283,0 6.00268,3.17951 10.79966,7.06558 15.49003,12.54858 30.10903,21.26602 47.72178,28.45693 4.95,2.02098 9.4275,4.08018 9.95,4.576 0.5225,0.49582 2.68045,0.90149 4.79545,0.90149 7.93047,0 11.7181,-8.76373 6.18081,-14.30101 -1.41555,-1.41555 -7.59775,-4.69435 -13.73821,-7.28622 -18.87744,-7.96811 -31.37126,-15.50483 -46.0133,-27.75688 -4.30389,-3.60137 -9.81948,-7.30955 -12.25687,-8.2404 -8.43482,-3.22129 -17.60142,-0.3851 -33.75955,10.44536 -16.33785,10.95092 -47.69753,27.40085 -67.96507,35.65152 -9.64635,3.92692 -12.08242,5.33951 -13.31342,7.71999 -3.02737,5.8543 0.95914,12.36303 7.77166,12.68869 0.90832,0.0434 6.75832,-1.97333 13,-4.48168 z m -14.45762,-32.3413 c 41.04745,-13.58976 74.24829,-32.8016 100.37,-58.07961 8.88944,-8.60231 11.49165,-10.54664 12.32046,-9.2056 0.27814,0.45004 1.49436,3.48876 2.70271,6.7527 4.72322,12.75823 13.1742,22.12072 29.57193,32.76153 15.56407,10.09984 40.17627,21.67291 46.0913,21.67291 6.80427,0 10.89902,-8.70093 6.49972,-13.81128 -0.9625,-1.11807 -8.725,-5.12279 -17.25,-8.89937 -16.98479,-7.52428 -32.73198,-17.30366 -40.24757,-24.99471 -3.32172,-3.39926 -5.76454,-7.30625 -8.13367,-13.00878 -4.37725,-10.53611 -6.6719,-13.64908 -11.94146,-16.20003 -9.369,-4.53546 -17.00802,-1.8989 -29.60874,10.21928 -11.91662,11.46027 -19.91604,17.9523 -31.70801,25.73304 -18.62978,12.29256 -43.75042,23.96346 -67.86055,31.52759 -6.6,2.07064 -13.0125,4.66887 -14.25,5.77384 -5.13994,4.5895 -1.25977,14.66042 5.64843,14.66042 1.64413,0 9.65209,-2.20587 17.79545,-4.90193 z m -9.57557,-31.02533 c 9.00993,-2.71 20.43169,-6.34729 25.38169,-8.08287 24.54802,-8.60711 56.5418,-30.43021 77.97199,-53.18502 17.69591,-18.78972 27.87079,-34.96913 31.08944,-49.43639 4.66523,-20.96927 -5.85498,-43.92547 -24.42599,-53.30009 -13.04251,-6.58384 -25.27846,-7.60583 -37.28378,-3.11406 -10.21433,3.82167 -16.79027,11.19674 -27.68175,31.04569 -10.43061,19.00904 -20.06971,29.11987 -35.16991,36.89106 -10.756,5.5355 -18.52064,8.00761 -39.72232,12.64687 -5.99594,1.31201 -8.50245,10.11085 -4.02768,14.13874 3.632,3.26929 5.3646,3.41439 15.23495,1.2759 25.49038,-5.5227 45.19047,-15.48301 60.08754,-30.38008 7.87301,-7.87301 12.14389,-13.88341 21.36897,-30.07249 9.70519,-17.03161 13.7609,-20.5 23.97137,-20.5 13.45299,0 26.24281,8.84781 29.62937,20.49717 2.60978,8.97733 1.7098,16.43227 -3.20708,26.56555 -12.51085,25.78387 -42.23054,54.08307 -76.33512,72.6866 -8.12045,4.42959 -23.70781,10.09229 -44.95119,16.33024 -15.22435,4.4705 -18.04881,6.3333 -18.04881,11.90362 0,3.87458 1.27165,6.09632 4.5,7.86209 3.06881,1.67851 4.08452,1.50126 21.61831,-3.77253 z M 377.35444,308.8103 c 3.2384,-1.72479 4.61686,-3.95609 4.65246,-7.5309 0.0471,-4.73183 -3.35368,-7.66993 -12.4682,-10.77184 -12.4392,-4.23339 -23.16809,-10.31479 -30.09325,-17.05762 -5.29139,-5.15206 -6.50653,-7.03317 -8.3976,-13 -3.58937,-11.32535 -3.69076,-22.17684 -0.38757,-41.4763 3.77619,-22.06297 3.95882,-39.05949 0.53678,-49.95693 -9.71294,-30.93084 -33.61468,-51.32696 -64.75849,-55.2605 -7.22524,-0.91257 -12.34164,-0.91518 -22.14782,-0.0113 -31.12301,2.86873 -46.77341,12.28577 -61.16482,36.80365 -9.46159,16.1192 -12.82413,21.18435 -17.25334,25.98947 -6.65114,7.21564 -16.008,12.26531 -28.63664,15.45451 -5.787,1.46143 -8.19725,4.04672 -8.19725,8.79255 0,4.06419 2.38537,7.54132 5.94949,8.67253 5.27548,1.67437 25.42158,-6.11214 35.51876,-13.72807 9.02682,-6.8086 15.28338,-14.70402 24.53175,-30.95765 12.31891,-21.64999 21.47401,-28.95243 40.44543,-32.26077 10.2901,-1.79444 27.18064,-2.00852 34.75535,-0.44051 10.24871,2.12156 19.59925,7.48949 28.38812,16.29699 16.98447,17.02046 20.42793,32.29033 14.80241,65.64068 -7.72052,45.77037 1.05661,69.223 31.82069,85.02543 10.17939,5.2288 24.73225,10.88356 28.10374,10.9202 0.99866,0.0109 2.79866,-0.50377 4,-1.14361 z M 150.73062,286.42913 c 40.61084,-12.19042 70.55202,-30.1223 90.29508,-54.07805 10.63128,-12.89975 20.013,-30.34353 20.013,-37.21094 0,-3.86126 -4.32401,-8.1665 -8.20211,-8.1665 -4.66666,0 -6.81227,1.77821 -9.45344,7.83468 -6.87205,15.75832 -13.55191,25.39015 -25.22072,36.36629 -18.32989,17.24181 -42.15745,29.79766 -73.08898,38.514 -14.40334,4.05879 -17.43475,6.12566 -17.43475,11.88735 0,4.43197 3.96571,8.39768 8.39768,8.39768 1.58739,0 8.19979,-1.59503 14.69424,-3.54451 z m 233.05808,-18.0489 c 1.39503,-1.56127 2.25,-3.80542 2.25,-5.90589 0,-2.77121 -0.75265,-3.98954 -4.13548,-6.69424 -15.38501,-12.30086 -17.91986,-16.22222 -18.60965,-28.78867 -0.38783,-7.0655 0.0485,-10.7343 2.55907,-21.51779 3.99855,-17.17473 4.55889,-23.23532 3.14401,-34.00538 -2.92355,-22.25412 -12.54065,-41.86165 -28.88261,-58.88651 -17.27709,-17.999054 -38.0264,-29.519474 -61.76335,-34.292204 -6.76245,-1.35971 -13.57999,-1.76493 -29.31199,-1.74223 -19.40415,0.028 -20.96979,0.17418 -29.28832,2.73468 -27.55647,8.48204 -48.56945,26.210504 -70.48274,59.465644 -8.56051,12.99124 -9.45477,16.91467 -4.77318,20.94161 3.20656,2.75817 8.50718,3.00901 11.29213,0.53439 1.0832,-0.9625 3.89925,-4.9 6.25789,-8.75 16.93177,-27.63768 38.06824,-46.98716 59.09888,-54.102332 15.41593,-5.215572 39.68876,-5.365582 59.68519,-0.36884 17.93402,4.481382 38.81704,18.251092 51.41733,33.903242 18.34728,22.7911 23.32225,44.68626 16.37509,72.06793 -4.73542,18.66428 -3.95422,34.73844 2.25265,46.35096 3.06519,5.73469 15.33175,17.52227 21.39255,20.5572 5.03177,2.51965 8.31134,2.09227 11.52253,-1.50157 z"
     id="path4635"
     inkscape:connector-curvature="0" />
</svg>
